<svg width="27" height="30" viewBox="0 0 27 30" fill="none" xmlns="http://www.w3.org/2000/svg">
<path d="M19.4588 0.998569C17.655 0.0912024 15.6062 -0.208687 13.6181 0.143638C11.6299 0.495964 9.80895 1.48162 8.42681 2.95357C5.38081 2.49857 2.24381 3.99857 0.786813 6.91357C0.352414 7.77457 0.0919442 8.71274 0.0202895 9.67445C-0.0513653 10.6362 0.0671998 11.6026 0.369209 12.5184C0.671218 13.4343 1.15075 14.2817 1.7804 15.0122C2.41005 15.7426 3.17747 16.3418 4.03881 16.7756L4.04281 16.7766C4.51281 17.0116 4.99581 17.1916 5.48381 17.3196L5.63981 19.8026C5.71981 21.2026 5.42981 22.6126 4.79981 23.8626L3.82981 25.7926C3.50981 26.4326 3.75981 27.2226 4.40981 27.5526L7.18981 28.9526C7.82981 29.2726 8.61981 29.0226 8.94981 28.3726L9.91981 26.4426C10.5488 25.1855 11.5015 24.1189 12.6798 23.3526L14.7298 22.0026C15.1118 22.3036 15.5298 22.5706 15.9798 22.7956C16.8409 23.2301 17.7792 23.4906 18.7411 23.5623C19.703 23.634 20.6695 23.5153 21.5855 23.2132C22.5015 22.9111 23.349 22.4314 24.0795 21.8016C24.81 21.1718 25.4092 20.4041 25.8428 19.5426L25.8458 19.5366C26.5318 18.1521 26.7668 16.5875 26.5179 15.0626C26.2689 13.5376 25.5485 12.129 24.4578 11.0346C24.8189 9.04682 24.5274 6.99559 23.6268 5.18716C22.7262 3.37873 21.2648 1.9101 19.4608 1.00057L19.4588 0.998569ZM12.6608 21.0426L9.45981 23.1426L10.3928 20.8986C11.1428 21.1276 11.9188 21.1696 12.6608 21.0426ZM8.68081 19.9766L7.71981 22.2726L7.49381 18.5346C7.79348 19.0865 8.19606 19.576 8.67981 19.9766H8.68081ZM9.57081 4.67857C10.6328 3.39093 12.1007 2.5023 13.7339 2.15836C15.3671 1.81441 17.0688 2.03557 18.5598 2.78557C20.0511 3.53721 21.2425 4.77353 21.9384 6.29156C22.6344 7.80959 22.7936 9.51914 22.3898 11.1396L22.2378 11.7436L22.7148 12.1466C23.6305 12.9253 24.2598 13.9878 24.5026 15.1651C24.7453 16.3424 24.5877 17.5671 24.0548 18.6446C23.7392 19.271 23.3032 19.8292 22.7718 20.2871C22.2404 20.745 21.624 21.0938 20.9578 21.3134C20.2916 21.533 19.5886 21.6192 18.8891 21.5671C18.1895 21.515 17.5071 21.3255 16.8808 21.0096L16.8768 21.0076C15.9865 20.5654 15.2407 19.8785 14.7268 19.0276L14.2088 18.1676L13.3508 18.6876C12.9247 18.9453 12.4401 19.0905 11.9425 19.1095C11.4448 19.1284 10.9506 19.0205 10.5061 18.796C10.0616 18.5714 9.68158 18.2375 9.40164 17.8256C9.1217 17.4138 8.95108 16.9375 8.90581 16.4416L8.81481 15.4496L7.82181 15.5366C6.87296 15.6226 5.91837 15.4532 5.05706 15.0459C4.19574 14.6387 3.45907 14.0084 2.92345 13.2205C2.38783 12.4325 2.07276 11.5157 2.01093 10.5649C1.9491 9.6142 2.14276 8.66423 2.57181 7.81357L2.57381 7.80957C3.69981 5.55757 6.21581 4.45957 8.56981 5.01557L9.17581 5.15857L9.57181 4.67857H9.57081Z" fill="currentColor"/>
</svg>
